<?xml version="1.0" encoding="UTF-8" standalone="no"?>
<svg
   xmlns:dc="http://purl.org/dc/elements/1.1/"
   xmlns:cc="http://creativecommons.org/ns#"
   xmlns:rdf="http://www.w3.org/1999/02/22-rdf-syntax-ns#"
   xmlns:svg="http://www.w3.org/2000/svg"
   xmlns="http://www.w3.org/2000/svg"
   xmlns:xlink="http://www.w3.org/1999/xlink"
   xmlns:sodipodi="http://sodipodi.sourceforge.net/DTD/sodipodi-0.dtd"
   xmlns:inkscape="http://www.inkscape.org/namespaces/inkscape"
   id="svg8"
   version="1.1"
   viewBox="0 0 200 200"
   height="200"
   width="200"
   sodipodi:docname="brush.svg"
   inkscape:version="0.92.2 (5c3e80d, 2017-08-06)">
  <sodipodi:namedview
     pagecolor="#ffffff"
     bordercolor="#666666"
     borderopacity="1"
     objecttolerance="10"
     gridtolerance="10"
     guidetolerance="10"
     inkscape:pageopacity="0"
     inkscape:pageshadow="2"
     inkscape:window-width="959"
     inkscape:window-height="1008"
     id="namedview4532"
     showgrid="true"
     inkscape:zoom="1.4142136"
     inkscape:cx="55.123692"
     inkscape:cy="37.874672"
     inkscape:window-x="952"
     inkscape:window-y="0"
     inkscape:window-maximized="0"
     inkscape:current-layer="g4538"
     showguides="false">
    <inkscape:grid
       type="xygrid"
       id="grid825" />
  </sodipodi:namedview>
  <defs
     id="defs2">
    <linearGradient
       inkscape:collect="always"
       id="linearGradient1107">
      <stop
         style="stop-color:#f7f7f7;stop-opacity:1"
         offset="0"
         id="stop1103" />
      <stop
         style="stop-color:#a9a9a9;stop-opacity:1"
         offset="1"
         id="stop1105" />
    </linearGradient>
    <linearGradient
       inkscape:collect="always"
       id="linearGradient1059">
      <stop
         style="stop-color:#f0542a;stop-opacity:1"
         offset="0"
         id="stop1055" />
      <stop
         id="stop1067"
         offset="0.06666674"
         style="stop-color:#f04b1a;stop-opacity:1" />
      <stop
         style="stop-color:#f0542a;stop-opacity:1"
         offset="0.13333322"
         id="stop1069" />
      <stop
         id="stop1071"
         offset="0.20000006"
         style="stop-color:#f04b1a;stop-opacity:1" />
      <stop
         style="stop-color:#f0542a;stop-opacity:1"
         offset="0.26666656"
         id="stop1073" />
      <stop
         id="stop1075"
         offset="0.33333322"
         style="stop-color:#f04b1a;stop-opacity:1" />
      <stop
         style="stop-color:#f0542a;stop-opacity:1"
         offset="0.40000007"
         id="stop1083" />
      <stop
         id="stop1085"
         offset="0.46627602"
         style="stop-color:#f04b1a;stop-opacity:1" />
      <stop
         style="stop-color:#f0542a;stop-opacity:1"
         offset="0.53333324"
         id="stop1087" />
      <stop
         id="stop1089"
         offset="0.60000008"
         style="stop-color:#f04b1a;stop-opacity:1" />
      <stop
         style="stop-color:#f0542a;stop-opacity:1"
         offset="0.66708386"
         id="stop1091" />
      <stop
         id="stop1093"
         offset="0.73300683"
         style="stop-color:#f04b1a;stop-opacity:1" />
      <stop
         style="stop-color:#f0542a;stop-opacity:1"
         offset="0.79999989"
         id="stop1095" />
      <stop
         id="stop1097"
         offset="0.86666673"
         style="stop-color:#f04b1a;stop-opacity:1" />
      <stop
         style="stop-color:#f0542a;stop-opacity:1"
         offset="0.93333322"
         id="stop1099" />
      <stop
         style="stop-color:#f04b1a;stop-opacity:1"
         offset="1"
         id="stop1057" />
    </linearGradient>
    <linearGradient
       inkscape:collect="always"
       id="linearGradient1003">
      <stop
         style="stop-color:#9b6e2b;stop-opacity:1;"
         offset="0"
         id="stop999" />
      <stop
         id="stop1029"
         offset="0.04545447"
         style="stop-color:#a47021;stop-opacity:1" />
      <stop
         id="stop1009"
         offset="0.09090903"
         style="stop-color:#9b6e2b;stop-opacity:1" />
      <stop
         style="stop-color:#a47021;stop-opacity:1"
         offset="0.13636358"
         id="stop1027" />
      <stop
         style="stop-color:#9b6e2b;stop-opacity:1"
         offset="0.18181813"
         id="stop1019" />
      <stop
         id="stop1031"
         offset="0.22727267"
         style="stop-color:#a47021;stop-opacity:1" />
      <stop
         style="stop-color:#9b6e2b;stop-opacity:1"
         offset="0.27272725"
         id="stop1033" />
      <stop
         id="stop1035"
         offset="0.31818178"
         style="stop-color:#a47021;stop-opacity:1" />
      <stop
         style="stop-color:#9b6e2b;stop-opacity:1"
         offset="0.36363634"
         id="stop1037" />
      <stop
         id="stop1039"
         offset="0.40909091"
         style="stop-color:#a47021;stop-opacity:1" />
      <stop
         style="stop-color:#9b6e2b;stop-opacity:1"
         offset="0.45454544"
         id="stop1041" />
      <stop
         style="stop-color:#a16f24;stop-opacity:1;"
         offset="0.50423723"
         id="stop1013" />
      <stop
         id="stop1015"
         offset="0.50423723"
         style="stop-color:#a47021;stop-opacity:1" />
      <stop
         style="stop-color:#9b6e2b;stop-opacity:1"
         offset="0.54545456"
         id="stop1025" />
      <stop
         id="stop1043"
         offset="0.59090906"
         style="stop-color:#a47021;stop-opacity:1" />
      <stop
         style="stop-color:#9b6e2b;stop-opacity:1"
         offset="0.63636369"
         id="stop1045" />
      <stop
         style="stop-color:#a47021;stop-opacity:1"
         offset="0.68181819"
         id="stop1017" />
      <stop
         id="stop1021"
         offset="0.72727269"
         style="stop-color:#9b6e2b;stop-opacity:1" />
      <stop
         style="stop-color:#a47021;stop-opacity:1"
         offset="0.77272731"
         id="stop1023" />
      <stop
         id="stop1047"
         offset="0.81818175"
         style="stop-color:#9b6e2b;stop-opacity:1" />
      <stop
         style="stop-color:#a47021;stop-opacity:1"
         offset="0.86363643"
         id="stop1049" />
      <stop
         id="stop1051"
         offset="0.909091"
         style="stop-color:#9b6e2b;stop-opacity:1" />
      <stop
         style="stop-color:#a47021;stop-opacity:1"
         offset="0.95454538"
         id="stop1053" />
      <stop
         style="stop-color:#9b6e2b;stop-opacity:1"
         offset="1"
         id="stop1001" />
    </linearGradient>
    <linearGradient
       inkscape:collect="always"
       xlink:href="#linearGradient1003"
       id="linearGradient1011"
       gradientUnits="userSpaceOnUse"
       x1="102"
       y1="101.99999"
       x2="146"
       y2="145.99998" />
    <linearGradient
       inkscape:collect="always"
       xlink:href="#linearGradient1059"
       id="linearGradient1061"
       x1="94"
       y1="185.99998"
       x2="64"
       y2="155.99998"
       gradientUnits="userSpaceOnUse" />
    <linearGradient
       inkscape:collect="always"
       xlink:href="#linearGradient1107"
       id="linearGradient1109"
       x1="134.18341"
       y1="139.37173"
       x2="139.77826"
       y2="145.8342"
       gradientUnits="userSpaceOnUse" />
  </defs>
  <metadata
     id="metadata5">
    <rdf:RDF>
      <cc:Work
         rdf:about="">
        <dc:format>image/svg+xml</dc:format>
        <dc:type
           rdf:resource="http://purl.org/dc/dcmitype/StillImage" />
        <dc:title></dc:title>
      </cc:Work>
    </rdf:RDF>
  </metadata>
  <g
     id="g4538"
     transform="matrix(2.6810395,0,0,2.7754247,-194.75103,-319.75184)">
    <g
       id="layer1"
       transform="matrix(0.88686905,0,0,0.90078705,12.83851,15.601882)">
      <path
         style="fill:#f04c1f;fill-opacity:1;stroke:none;stroke-width:0.41015014px;stroke-linecap:butt;stroke-linejoin:miter;stroke-opacity:1"
         d="m 87.196778,179.37522 9.673087,-0.79998 2.943984,-7.5998 c -2.102846,-1.99995 -1.641397,-2.17843 -12.640914,-10.52656 -15.116642,-11.47285 -2.677321,-20.25587 2.929469,-22.3697 9.290876,-3.50277 13.496566,-5.50272 11.659596,-9.74986 -0.70834,-1.6377 -6.848485,-7.29967 -3.514208,-0.54493 2.242118,4.54219 -5.163048,0.39219 -17.698484,11.02066 -12.438158,10.54599 -6.810739,26.74541 -3.771825,29.96464 1.027229,1.08817 8.31645,8.60559 10.419295,10.60553 z"
         id="path869"
         inkscape:connector-curvature="0"
         sodipodi:nodetypes="cccssssssc" />
    </g>
    <path
       style="fill:url(#linearGradient1061);stroke:#000000;stroke-width:1px;stroke-linecap:butt;stroke-linejoin:miter;stroke-opacity:1;fill-opacity:1"
       d="M 80.421875 138.13281 C 80.393393 138.20546 80.364402 138.27693 80.335938 138.34961 C 80.333256 138.36071 80.328853 138.36891 80.326172 138.37891 C 79.956644 139.32263 79.55587 140.23616 79.125 141.12305 C 78.694103 142.00991 78.232921 142.87017 77.744141 143.70508 C 70.901144 155.39414 58.552736 162.23438 45.427734 170.98438 C 46.622566 171.66352 47.820015 172.30259 49.019531 172.92188 C 49.663584 173.25443 50.308016 173.58315 50.953125 173.89844 C 51.090475 173.9656 51.227847 174.03718 51.365234 174.10352 C 51.386146 174.11462 51.406876 174.12282 51.427734 174.13281 C 52.244277 174.5264 53.063086 174.90164 53.880859 175.26758 C 54.137301 175.3822 54.393866 175.49543 54.650391 175.60742 C 55.40991 175.93911 56.169578 176.26051 56.929688 176.56836 C 57.040361 176.61304 57.151035 176.66067 57.261719 176.70508 C 58.099659 177.04057 58.937231 177.35757 59.775391 177.66406 C 60.072273 177.77258 60.369144 177.87751 60.666016 177.98242 C 61.265091 178.19419 61.863987 178.39686 62.462891 178.59375 C 62.738786 178.68423 63.015188 178.77976 63.291016 178.86719 C 63.29297 178.8678 63.294998 178.86853 63.296875 178.86914 C 64.061416 179.11171 64.826018 179.33827 65.589844 179.55664 C 65.955227 179.661 66.320387 179.76063 66.685547 179.85938 C 67.204256 179.99981 67.72207 180.13442 68.240234 180.26367 C 68.573099 180.34666 68.905677 180.43317 69.238281 180.51172 C 69.243375 180.51294 69.246859 180.51551 69.251953 180.51562 C 70.002028 180.69242 70.751494 180.85455 71.5 181.00781 C 71.879118 181.08525 72.258067 181.15523 72.636719 181.22656 C 73.075356 181.30955 73.513224 181.38823 73.951172 181.46289 C 74.361264 181.53283 74.772219 181.60524 75.181641 181.66797 C 75.28352 181.68462 75.384583 181.69567 75.486328 181.71094 C 76.084093 181.80031 76.681161 181.88265 77.277344 181.95703 C 77.736284 182.01393 78.194422 182.06331 78.652344 182.11133 C 78.992541 182.14713 79.332295 182.17818 79.671875 182.20898 C 80.136017 182.25089 80.599565 182.29565 81.0625 182.32812 C 81.712652 182.37392 82.362187 182.41002 83.009766 182.4375 C 83.554982 182.4597 84.099319 182.47411 84.642578 182.48438 C 84.85438 182.48715 85.065917 182.48941 85.277344 182.49219 C 87.021628 182.50884 88.754079 182.46003 90.474609 182.3418 C 90.626356 182.3307 90.778102 182.3197 90.929688 182.30859 C 92.716332 182.17343 94.488569 181.96634 96.244141 181.68555 C 96.322963 181.67167 96.401914 181.66064 96.480469 181.64648 C 98.313817 181.34616 100.13032 180.96756 101.92383 180.50781 C 103.75248 180.03907 105.55864 179.48823 107.33984 178.85352 C 107.40126 178.83163 107.46208 178.80724 107.52344 178.78516 L 80.421875 138.13281 z "
       transform="matrix(0.37298966,0,0,0.36030522,72.64012,115.20826)"
       id="path876" />
    <path
       style="fill:url(#linearGradient1109);stroke:#000000;stroke-width:0.36659259px;stroke-linecap:butt;stroke-linejoin:miter;stroke-opacity:1;fill-opacity:1"
       d="m 130.45352,156.28306 14.91958,-12.25039 v -19.81678 l -24.24432,25.22137 z"
       id="path1101"
       inkscape:connector-curvature="0"
       sodipodi:nodetypes="ccccc" />
    <path
       style="stroke:#000000;stroke-width:1px;stroke-linecap:butt;stroke-linejoin:miter;stroke-opacity:1;fill-opacity:1;fill:url(#linearGradient1011)"
       d="M 125 90 C 101.43115 89.402024 90.380699 112.73022 80.421875 138.13281 L 107.52344 178.78516 C 116.63206 175.50705 125.08043 170.06584 132.44727 162.40625 C 142.02201 152.45094 160.42576 140.98482 155.42578 113.6543 L 132.75586 90.984375 C 130.02739 90.382524 127.44607 90.062058 125 90 z "
       transform="matrix(0.37298966,0,0,0.36030522,72.64012,115.20826)"
       id="path876-8" />
  </g>
</svg>
