<?xml version="1.0" encoding="UTF-8" standalone="no"?>
<svg
   xmlns:dc="http://purl.org/dc/elements/1.1/"
   xmlns:cc="http://creativecommons.org/ns#"
   xmlns:rdf="http://www.w3.org/1999/02/22-rdf-syntax-ns#"
   xmlns:svg="http://www.w3.org/2000/svg"
   xmlns="http://www.w3.org/2000/svg"
   xmlns:xlink="http://www.w3.org/1999/xlink"
   xmlns:sodipodi="http://sodipodi.sourceforge.net/DTD/sodipodi-0.dtd"
   xmlns:inkscape="http://www.inkscape.org/namespaces/inkscape"
   id="svg8"
   version="1.1"
   viewBox="0 0 200 200"
   height="200"
   width="200"
   sodipodi:docname="open.svg.2017_10_24_19_39_32.0.svg"
   inkscape:version="0.92.2 (5c3e80d, 2017-08-06)">
  <sodipodi:namedview
     pagecolor="#ffffff"
     bordercolor="#666666"
     borderopacity="1"
     objecttolerance="10"
     gridtolerance="10"
     guidetolerance="10"
     inkscape:pageopacity="0"
     inkscape:pageshadow="2"
     inkscape:window-width="1920"
     inkscape:window-height="1017"
     id="namedview4532"
     showgrid="true"
     inkscape:zoom="45.254835"
     inkscape:cx="129.56753"
     inkscape:cy="125.91877"
     inkscape:window-x="-8"
     inkscape:window-y="-8"
     inkscape:window-maximized="1"
     inkscape:current-layer="g4538"
     showguides="false">
    <inkscape:grid
       type="xygrid"
       id="grid825" />
  </sodipodi:namedview>
  <defs
     id="defs2">
    <linearGradient
       inkscape:collect="always"
       id="linearGradient823">
      <stop
         style="stop-color:#00ff00;stop-opacity:1"
         offset="0"
         id="stop819" />
      <stop
         style="stop-color:#008e00;stop-opacity:1"
         offset="1"
         id="stop821" />
    </linearGradient>
    <radialGradient
       inkscape:collect="always"
       xlink:href="#linearGradient823"
       id="radialGradient825"
       cx="124.98631"
       cy="145.16224"
       fx="124.98631"
       fy="145.16224"
       r="15.473724"
       gradientTransform="matrix(2.6810395,0,0,1.1279105,-194.75103,-80.594981)"
       gradientUnits="userSpaceOnUse" />
  </defs>
  <metadata
     id="metadata5">
    <rdf:RDF>
      <cc:Work
         rdf:about="">
        <dc:format>image/svg+xml</dc:format>
        <dc:type
           rdf:resource="http://purl.org/dc/dcmitype/StillImage" />
        <dc:title />
      </cc:Work>
    </rdf:RDF>
  </metadata>
  <g
     id="g4538"
     transform="matrix(2.6810395,0,0,2.7754247,-194.75103,-319.75184)">
    <path
       style="opacity:1;fill:#f7cd45;fill-opacity:1;fill-rule:nonzero;stroke:#150000;stroke-width:0.1;stroke-miterlimit:4;stroke-dasharray:none;stroke-opacity:1"
       d="M 29.830078 60 C 27.154289 60 25 62.230011 25 65 L 25 80 L 25 170 C 25 172.76999 27.154291 175 29.830078 175 L 170.16992 175 C 172.84571 175 175 172.76999 175 170 L 175 80 C 175 77.230012 172.84571 75 170.16992 75 L 85 75 L 85 65 C 85 62.230011 82.845711 60 80.169922 60 L 29.830078 60 z "
       transform="matrix(0.37298966,0,0,0.36030522,72.64012,115.20826)"
       id="rect1111-5" />
    <path
       style="opacity:1;fill:#f7cd45;fill-opacity:1;fill-rule:nonzero;stroke:#150000;stroke-width:0.03665926;stroke-miterlimit:4;stroke-dasharray:none;stroke-opacity:1"
       d="m 87.656594,145.67061 h 52.345416 c 0.99804,0 1.93434,0.81175 1.80152,1.80151 l -3.89022,28.98803 c -0.13283,0.98976 -0.80348,1.80152 -1.80152,1.80152 H 83.766377 c -0.998041,0 -1.934344,-0.81176 -1.801518,-1.80152 l 3.890217,-28.98803 c 0.132826,-0.98976 0.803477,-1.80151 1.801518,-1.80151 z"
       id="rect1111"
       inkscape:connector-curvature="0"
       sodipodi:nodetypes="sssssssss" />
    <path
       style="fill:url(#radialGradient825);fill-opacity:1;stroke:#000000;stroke-width:1px;stroke-linecap:butt;stroke-linejoin:miter;stroke-opacity:1"
       d="m 129.07227,65.228516 c -8.37058,0.05873 -10.64095,3.594483 -15.58571,7.131258 C 120,68.693309 125.33708,66.999989 128.13867,74.533203 129.5194,77.987324 130.22664,83.294372 130,91 h -15 l 25,15 25,-15 h -15 c -2.60232,-5.576606 -4,-12.257041 -6,-17 -1.39966,-3.937498 -7.55665,-8.823206 -14.92773,-8.771484 z m -0.9336,9.304687 C 124.11883,62.746497 110.98317,72.755552 100,84.5625 l 20,-0.03125 c 3.07188,-4.344878 5.75882,-7.599472 8.13867,-9.998047 z"
       transform="matrix(0.37298966,0,0,0.36030522,72.64012,115.20826)"
       id="path1141"
       inkscape:connector-curvature="0"
       sodipodi:nodetypes="sccccccccscccc" />
  </g>
</svg>
